
#
# '/mnt/sdcard/Download/cds-data/audio/Track_14 (60s 80kbps).mp3'
#
General
Count                                    : 284
Count of stream of this kind             : 1
Kind of stream                           : General
Kind of stream                           : General
Stream identifier                        : 0
Count of audio streams                   : 1
Audio_Format_List                        : MPEG Audio
Audio_Format_WithHint_List               : MPEG Audio
Audio codecs                             : MPEG-1 Audio layer 3
Complete name                            : /mnt/sdcard/Download/cds-data/audio/Track_14 (60s 80kbps).mp3
Folder name                              : /mnt/sdcard/Download/cds-data/audio
File name                                : Track_14 (60s 80kbps)
File extension                           : mp3
Format                                   : MPEG Audio
Format                                   : MPEG Audio
Format/Extensions usually used           : m1a mpa1 mp1 m2a mpa2 mp2 mp3
Commercial name                          : MPEG Audio
Internet media type                      : audio/mpeg
Codec                                    : MPEG Audio
Codec                                    : MPEG Audio
Codec/Extensions usually used            : m1a mpa1 mp1 m2a mpa2 mp2 mp3
File size                                : 600968
File size                                : 587 KiB
File size                                : 587 KiB
File size                                : 587 KiB
File size                                : 587 KiB
File size                                : 586.9 KiB
Duration                                 : 60048
Duration                                 : 1mn 0s
Duration                                 : 1mn 0s 48ms
Duration                                 : 1mn 0s
Duration                                 : 00:01:00.048
Overall bit rate mode                    : CBR
Overall bit rate mode                    : Constant
Overall bit rate                         : 80000
Overall bit rate                         : 80.0 Kbps
Stream size                              : 128
Stream size                              : 128 Bytes (0%)
Stream size                              : 128 Bytes
Stream size                              : 128 Bytes
Stream size                              : 128 Bytes
Stream size                              : 128.0 Bytes
Stream size                              : 128 Bytes (0%)
Proportion of this stream                : 0.00021
Title                                    : Track_14
Album                                    : Album_1
Track name                               : Track_14
Performer                                : Andrew
File last modification date              : UTC 2014-11-26 06:29:52
File last modification date (local)      : 2014-11-26 15:29:52
Writing library                          : LAME3.99r
Writing library                          : LAME3.99r

Audio
Count                                    : 222
Count of stream of this kind             : 1
Kind of stream                           : Audio
Kind of stream                           : Audio
Stream identifier                        : 0
Format                                   : MPEG Audio
Commercial name                          : MPEG Audio
Format version                           : Version 1
Format profile                           : Layer 3
Format settings                          : Joint stereo / MS Stereo
Mode                                     : Joint stereo
Mode extension                           : MS Stereo
Internet media type                      : audio/mpeg
Codec                                    : MPA1L3
Codec                                    : MPEG-1 Audio layer 3
Codec profile                            : Joint stereo
Duration                                 : 60048
Duration                                 : 1mn 0s
Duration                                 : 1mn 0s 48ms
Duration                                 : 1mn 0s
Duration                                 : 00:01:00.048
Bit rate mode                            : CBR
Bit rate mode                            : Constant
Bit rate                                 : 80000
Bit rate                                 : 80.0 Kbps
Channel(s)                               : 2
Channel(s)                               : 2 channels
Sampling rate                            : 32000
Sampling rate                            : 32.0 KHz
Samples count                            : 1921536
Frame count                              : 1668
Compression mode                         : Lossy
Compression mode                         : Lossy
Stream size                              : 600480
Stream size                              : 586 KiB (100%)
Stream size                              : 586 KiB
Stream size                              : 586 KiB
Stream size                              : 586 KiB
Stream size                              : 586.4 KiB
Stream size                              : 586 KiB (100%)
Proportion of this stream                : 0.99919
Writing library                          : LAME3.99r
Writing library                          : LAME3.99r
Encoding settings                        : -m j -V 4 -q 3 -lowpass 13.5 -b 80

